<svg width="55" height="55" viewBox="0 0 55 55" fill="none" xmlns="http://www.w3.org/2000/svg">
<circle cx="27.5" cy="27.5" r="27" fill="white" stroke="#DBDBDB"/>
<path d="M22.3398 22.1895H24.8691L20.3965 27.3848L25.25 33H22.6035L17.9453 27.5117V33H15.6406V22.1895H17.9453V27.4336L22.3398 22.1895ZM39.5371 22.1895V33H37.4082V26.8281C37.4082 26.4245 37.418 26.0208 37.4375 25.6172C37.457 25.2135 37.4831 24.8294 37.5156 24.4648H37.457L34.166 33H32.3594L29.0977 24.4551H29.0293C29.0618 24.8262 29.0846 25.2103 29.0977 25.6074C29.1172 26.0046 29.127 26.4342 29.127 26.8965V33H26.998V22.1895H30.2012L33.2871 30.2656L36.4219 22.1895H39.5371Z" fill="black"/>
</svg>
