<svg width="55" height="55" viewBox="0 0 55 55" fill="none" xmlns="http://www.w3.org/2000/svg">
<circle cx="27.5" cy="27.5" r="27" fill="white" stroke="#DBDBDB"/>
<path d="M30.1699 24.1895V35H28.041V28.8281C28.041 28.4245 28.0508 28.0208 28.0703 27.6172C28.0898 27.2135 28.1159 26.8294 28.1484 26.4648H28.0898L24.7988 35H22.9922L19.7305 26.4551H19.6621C19.6947 26.8262 19.7174 27.2103 19.7305 27.6074C19.75 28.0046 19.7598 28.4342 19.7598 28.8965V35H17.6309V24.1895H20.834L23.9199 32.2656L27.0547 24.1895H30.1699ZM38.2754 26.6797H32.2988V25.3516L34.5449 23.1445C35.0137 22.6888 35.375 22.3145 35.6289 22.0215C35.8828 21.722 36.0586 21.4551 36.1562 21.2207C36.2604 20.9798 36.3125 20.7259 36.3125 20.459C36.3125 20.1204 36.2083 19.8633 36 19.6875C35.7982 19.5052 35.5247 19.4141 35.1797 19.4141C34.8542 19.4141 34.5352 19.4857 34.2227 19.6289C33.9167 19.7721 33.5911 19.987 33.2461 20.2734L32.3184 19.0918C32.722 18.7467 33.168 18.4668 33.6562 18.252C34.151 18.0371 34.7174 17.9297 35.3555 17.9297C36.2083 17.9297 36.8854 18.138 37.3867 18.5547C37.8945 18.9714 38.1484 19.5605 38.1484 20.3223C38.1484 20.7454 38.0671 21.1361 37.9043 21.4941C37.7415 21.8522 37.4941 22.2168 37.1621 22.5879C36.8301 22.959 36.4069 23.3822 35.8926 23.8574L34.5547 25.1172H38.2754V26.6797Z" fill="black"/>
</svg>
